<svg width="26" height="26" viewBox="0 0 26 26" fill="none" xmlns="http://www.w3.org/2000/svg">
<path d="M23.0739 20.0198C23.0578 20.3937 22.9582 20.7745 22.7656 21.1409C22.5729 21.5072 22.3292 21.8506 22.0137 22.17C21.4807 22.7091 20.9024 23.0901 20.2576 23.3226C19.6232 23.5555 18.9422 23.6616 18.2151 23.6304C17.1556 23.5849 16.0341 23.287 14.8614 22.7267C13.6887 22.1664 12.5236 21.4296 11.3765 20.5166C10.2194 19.5928 9.12864 18.5781 8.09429 17.4618C7.07078 16.3356 6.15337 15.1619 5.34206 13.9407C4.54115 12.72 3.90642 11.5064 3.45823 10.3113C3.01048 9.10569 2.8098 7.96277 2.85618 6.88248C2.88651 6.17615 3.04014 5.50632 3.3162 4.89378C3.5927 4.27086 4.0124 3.70612 4.58522 3.21039C5.27811 2.58453 6.01905 2.29374 6.78771 2.32675C7.07856 2.33923 7.36673 2.41404 7.62106 2.54984C7.88578 2.68609 8.11666 2.88332 8.29203 3.16141L10.5561 6.66154C10.7319 6.92925 10.8567 7.17396 10.9403 7.40649C11.0245 7.62864 11.067 7.84901 11.0585 8.04637C11.0478 8.29566 10.9644 8.54184 10.8087 8.7745C10.6635 9.00761 10.4554 9.24843 10.1954 9.48703L9.37072 10.2737C9.25156 10.3831 9.19382 10.5159 9.18669 10.6821C9.18312 10.7652 9.19038 10.8383 9.20759 10.9223C9.23518 11.0068 9.26367 11.0704 9.28177 11.1336C9.45402 11.4845 9.75685 11.9449 10.1907 12.5047C10.6349 13.0649 11.1099 13.6369 11.6264 14.2106C12.1637 14.7852 12.682 15.3174 13.2124 15.8084C13.7329 16.2887 14.1662 16.6195 14.5114 16.8216C14.5624 16.8446 14.6234 16.8784 14.6948 16.9127C14.7765 16.9474 14.8592 16.9614 14.9527 16.9654C15.1292 16.973 15.267 16.9165 15.3861 16.8071L16.209 16.062C16.4798 15.8134 16.7376 15.6268 16.9819 15.5124C17.227 15.3772 17.4691 15.3148 17.7287 15.3259C17.9261 15.3344 18.1321 15.3849 18.3566 15.4882C18.5811 15.5915 18.8142 15.7367 19.0663 15.9245L22.3997 18.5131C22.6617 18.7117 22.8393 18.9379 22.9425 19.2024C23.0352 19.4666 23.0863 19.7289 23.0739 20.0198Z" stroke="#232323" stroke-width="1.5" stroke-miterlimit="10"/>
<path d="M19.8856 10.1737C19.9123 9.55042 19.4651 8.57383 18.7715 7.76356C18.1375 7.01829 17.2786 6.41946 16.4061 6.382" stroke="#232323" stroke-width="1.5" stroke-linecap="round" stroke-linejoin="round"/>
<path d="M23.5211 10.3298C23.6937 6.30988 20.5821 2.91905 16.5622 2.74645" stroke="#232323" stroke-width="1.5" stroke-linecap="round" stroke-linejoin="round"/>
</svg>
