<svg width="26" height="26" viewBox="0 0 26 26" fill="none" xmlns="http://www.w3.org/2000/svg">
<path d="M23.0739 20.0199C23.0578 20.3938 22.9582 20.7746 22.7656 21.1409C22.5729 21.5073 22.3292 21.8506 22.0137 22.1701C21.4807 22.7092 20.9024 23.0902 20.2576 23.3227C19.6232 23.5556 18.9422 23.6616 18.2151 23.6304C17.1556 23.5849 16.0341 23.287 14.8614 22.7268C13.6887 22.1665 12.5236 21.4296 11.3765 20.5166C10.2194 19.5928 9.12864 18.5782 8.09429 17.4619C7.07078 16.3357 6.15337 15.162 5.34206 13.9408C4.54115 12.7201 3.90642 11.5065 3.45823 10.3113C3.01048 9.10575 2.8098 7.96283 2.85618 6.88255C2.88651 6.17621 3.04014 5.50638 3.3162 4.89385C3.5927 4.27092 4.0124 3.70618 4.58522 3.21045C5.27811 2.58459 6.01905 2.29381 6.78771 2.32681C7.07856 2.3393 7.36673 2.41411 7.62106 2.54991C7.88578 2.68615 8.11666 2.88338 8.29203 3.16148L10.5561 6.66161C10.7319 6.92932 10.8567 7.17402 10.9403 7.40656C11.0245 7.62871 11.067 7.84907 11.0585 8.04643C11.0478 8.29573 10.9644 8.5419 10.8087 8.77456C10.6635 9.00767 10.4554 9.2485 10.1954 9.48709L9.37072 10.2738C9.25156 10.3831 9.19382 10.516 9.18669 10.6822C9.18312 10.7653 9.19038 10.8384 9.20759 10.9224C9.23518 11.0068 9.26367 11.0705 9.28177 11.1337C9.45402 11.4845 9.75685 11.945 10.1907 12.5048C10.6349 13.065 11.1099 13.6369 11.6264 14.2106C12.1637 14.7852 12.682 15.3174 13.2124 15.8085C13.7329 16.2887 14.1662 16.6195 14.5114 16.8217C14.5624 16.8447 14.6234 16.8785 14.6948 16.9128C14.7765 16.9475 14.8592 16.9615 14.9527 16.9655C15.1292 16.9731 15.267 16.9165 15.3861 16.8072L16.209 16.062C16.4798 15.8135 16.7376 15.6268 16.9819 15.5124C17.227 15.3773 17.4691 15.3148 17.7287 15.326C17.9261 15.3345 18.1321 15.3849 18.3566 15.4882C18.5811 15.5915 18.8142 15.7368 19.0663 15.9245L22.3997 18.5132C22.6617 18.7118 22.8393 18.9379 22.9425 19.2025C23.0352 19.4666 23.0863 19.729 23.0739 20.0199Z" stroke="#232323" stroke-width="1.5" stroke-miterlimit="10"/>
<path d="M19.8856 10.1737C19.9123 9.55049 19.4651 8.57389 18.7715 7.76362C18.1375 7.01835 17.2786 6.41953 16.4061 6.38206" stroke="#232323" stroke-width="1.5" stroke-linecap="round" stroke-linejoin="round"/>
<path d="M23.5211 10.3298C23.6937 6.30988 20.5821 2.91905 16.5622 2.74645" stroke="#232323" stroke-width="1.5" stroke-linecap="round" stroke-linejoin="round"/>
</svg>
